<svg width="8" height="11" viewBox="0 0 8 11" fill="none" xmlns="http://www.w3.org/2000/svg">
    <path d="M4 5.39551C4.275 5.39551 4.5105 5.29105 4.7065 5.08213C4.90217 4.87357 5 4.62272 5 4.32959C5 4.03647 4.90217 3.78544 4.7065 3.57652C4.5105 3.36796 4.275 3.26367 4 3.26367C3.725 3.26367 3.48967 3.36796 3.294 3.57652C3.098 3.78544 3 4.03647 3 4.32959C3 4.62272 3.098 4.87357 3.294 5.08213C3.48967 5.29105 3.725 5.39551 4 5.39551ZM4 9.31276C5.01667 8.31791 5.77083 7.41401 6.2625 6.60107C6.75417 5.78848 7 5.06685 7 4.43618C7 3.46797 6.71033 2.67511 6.131 2.05759C5.552 1.44042 4.84167 1.13184 4 1.13184C3.15833 1.13184 2.44783 1.44042 1.8685 2.05759C1.2895 2.67511 1 3.46797 1 4.43618C1 5.06685 1.24583 5.78848 1.7375 6.60107C2.22917 7.41401 2.98333 8.31791 4 9.31276ZM4 10.7251C2.65833 9.50818 1.65633 8.37777 0.994 7.33388C0.331333 6.29035 0 5.32445 0 4.43618C0 3.10379 0.402167 2.04231 1.2065 1.25175C2.0105 0.461196 2.94167 0.065918 4 0.065918C5.05833 0.065918 5.9895 0.461196 6.7935 1.25175C7.59783 2.04231 8 3.10379 8 4.43618C8 5.32445 7.66883 6.29035 7.0065 7.33388C6.34383 8.37777 5.34167 9.50818 4 10.7251Z" fill="#D5D5D5"/>
</svg>
