<svg width="12" height="12" viewBox="0 0 12 12" fill="none" xmlns="http://www.w3.org/2000/svg">
    <path d="M5.99999 5.99996C5.26666 5.99996 4.63888 5.73885 4.11666 5.21663C3.59443 4.6944 3.33332 4.06663 3.33332 3.33329C3.33332 2.59996 3.59443 1.97218 4.11666 1.44996C4.63888 0.927737 5.26666 0.666626 5.99999 0.666626C6.73332 0.666626 7.3611 0.927737 7.88332 1.44996C8.40554 1.97218 8.66666 2.59996 8.66666 3.33329C8.66666 4.06663 8.40554 4.6944 7.88332 5.21663C7.3611 5.73885 6.73332 5.99996 5.99999 5.99996ZM1.99999 11.3333C1.63332 11.3333 1.31955 11.2028 1.05866 10.942C0.797323 10.6806 0.666656 10.3666 0.666656 9.99996V9.46663C0.666656 9.08885 0.76399 8.74151 0.958657 8.42463C1.15288 8.10818 1.4111 7.86663 1.73332 7.69996C2.42221 7.35551 3.12221 7.09707 3.83332 6.92463C4.54443 6.75263 5.26666 6.66663 5.99999 6.66663C6.73332 6.66663 7.45554 6.75263 8.16666 6.92463C8.87777 7.09707 9.57777 7.35551 10.2667 7.69996C10.5889 7.86663 10.8471 8.10818 11.0413 8.42463C11.236 8.74151 11.3333 9.08885 11.3333 9.46663V9.99996C11.3333 10.3666 11.2029 10.6806 10.942 10.942C10.6807 11.2028 10.3667 11.3333 9.99999 11.3333H1.99999Z" fill="#303030"/>
</svg>
